<?xml version="1.0" encoding="utf-8" standalone="no"?>
<!DOCTYPE svg PUBLIC "-//W3C//DTD SVG 1.1//EN"
  "http://www.w3.org/Graphics/SVG/1.1/DTD/svg11.dtd">
<svg height="305pt" version="1.1" viewBox="0 0 450 305" width="450pt" xmlns="http://www.w3.org/2000/svg" xmlns:xlink="http://www.w3.org/1999/xlink">
 <metadata>
  <rdf:RDF xmlns:cc="http://creativecommons.org/ns#" xmlns:dc="http://purl.org/dc/elements/1.1/" xmlns:rdf="http://www.w3.org/1999/02/22-rdf-syntax-ns#">
   <cc:Work>
    <dc:type rdf:resource="http://purl.org/dc/dcmitype/StillImage"/>
    <dc:date>2023-07-27T20:19:47.191350</dc:date>
    <dc:format>image/svg+xml</dc:format>
    <dc:creator>
     <cc:Agent>
      <dc:title>Matplotlib v3.4.3, https://matplotlib.org/</dc:title>
     </cc:Agent>
    </dc:creator>
   </cc:Work>
  </rdf:RDF>
 </metadata>
 <defs>
  <style type="text/css">*{stroke-linecap:butt;stroke-linejoin:round;}</style>
 </defs>
 <g id="figure_1">
  <g id="patch_1">
   <path d="M 0 305 
L 450 305 
L 450 0 
L 0 0 
z
" style="fill:#ffffff;"/>
  </g>
  <g id="axes_1">
   <g id="patch_2">
    <path d="M 30.525 277.521875 
L 439.2 277.521875 
L 439.2 10.8 
L 30.525 10.8 
z
" style="fill:#ffffff;"/>
   </g>
   <g id="PathCollection_1">
    <defs>
     <path d="M 0 3 
C 0.795609 3 1.55874 2.683901 2.12132 2.12132 
C 2.683901 1.55874 3 0.795609 3 0 
C 3 -0.795609 2.683901 -1.55874 2.12132 -2.12132 
C 1.55874 -2.683901 0.795609 -3 0 -3 
C -0.795609 -3 -1.55874 -2.683901 -2.12132 -2.12132 
C -2.683901 -1.55874 -3 -0.795609 -3 0 
C -3 0.795609 -2.683901 1.55874 -2.12132 2.12132 
C -1.55874 2.683901 -0.795609 3 0 3 
z
" id="m5970374a87" style="stroke:#1f77b4;"/>
    </defs>
    <g clip-path="url(#p07d1e5f072)">
     <use style="fill:#1f77b4;stroke:#1f77b4;" x="58.030852" xlink:href="#m5970374a87" y="241.624491"/>
     <use style="fill:#1f77b4;stroke:#1f77b4;" x="50.059456" xlink:href="#m5970374a87" y="57.780479"/>
     <use style="fill:#1f77b4;stroke:#1f77b4;" x="58.437544" xlink:href="#m5970374a87" y="81.029597"/>
     <use style="fill:#1f77b4;stroke:#1f77b4;" x="52.544745" xlink:href="#m5970374a87" y="247.811848"/>
     <use style="fill:#1f77b4;stroke:#1f77b4;" x="60.401189" xlink:href="#m5970374a87" y="64.001677"/>
     <use style="fill:#1f77b4;stroke:#1f77b4;" x="54.802848" xlink:href="#m5970374a87" y="30.639586"/>
     <use style="fill:#1f77b4;stroke:#1f77b4;" x="51.355437" xlink:href="#m5970374a87" y="38.569781"/>
     <use style="fill:#1f77b4;stroke:#1f77b4;" x="49.244561" xlink:href="#m5970374a87" y="62.224997"/>
     <use style="fill:#1f77b4;stroke:#1f77b4;" x="91.438282" xlink:href="#m5970374a87" y="127.499633"/>
     <use style="fill:#1f77b4;stroke:#1f77b4;" x="51.973224" xlink:href="#m5970374a87" y="40.758198"/>
     <use style="fill:#1f77b4;stroke:#1f77b4;" x="51.321209" xlink:href="#m5970374a87" y="168.865241"/>
     <use style="fill:#1f77b4;stroke:#1f77b4;" x="51.614497" xlink:href="#m5970374a87" y="119.084377"/>
     <use style="fill:#1f77b4;stroke:#1f77b4;" x="50.327619" xlink:href="#m5970374a87" y="66.641315"/>
     <use style="fill:#1f77b4;stroke:#1f77b4;" x="49.506774" xlink:href="#m5970374a87" y="202.706753"/>
     <use style="fill:#1f77b4;stroke:#1f77b4;" x="102.586163" xlink:href="#m5970374a87" y="80.527615"/>
     <use style="fill:#1f77b4;stroke:#1f77b4;" x="51.108336" xlink:href="#m5970374a87" y="77.05886"/>
     <use style="fill:#1f77b4;stroke:#1f77b4;" x="53.081741" xlink:href="#m5970374a87" y="193.868478"/>
     <use style="fill:#1f77b4;stroke:#1f77b4;" x="51.409178" xlink:href="#m5970374a87" y="209.181762"/>
     <use style="fill:#1f77b4;stroke:#1f77b4;" x="53.026979" xlink:href="#m5970374a87" y="151.972686"/>
     <use style="fill:#1f77b4;stroke:#1f77b4;" x="54.031366" xlink:href="#m5970374a87" y="204.387548"/>
     <use style="fill:#1f77b4;stroke:#1f77b4;" x="58.453584" xlink:href="#m5970374a87" y="33.922213"/>
     <use style="fill:#1f77b4;stroke:#1f77b4;" x="50.276008" xlink:href="#m5970374a87" y="236.474941"/>
     <use style="fill:#1f77b4;stroke:#1f77b4;" x="51.929993" xlink:href="#m5970374a87" y="203.141052"/>
     <use style="fill:#1f77b4;stroke:#1f77b4;" x="53.633619" xlink:href="#m5970374a87" y="45.766742"/>
     <use style="fill:#1f77b4;stroke:#1f77b4;" x="420.623864" xlink:href="#m5970374a87" y="77.307031"/>
     <use style="fill:#1f77b4;stroke:#1f77b4;" x="61.507353" xlink:href="#m5970374a87" y="77.713129"/>
     <use style="fill:#1f77b4;stroke:#1f77b4;" x="49.245233" xlink:href="#m5970374a87" y="121.351759"/>
     <use style="fill:#1f77b4;stroke:#1f77b4;" x="67.249813" xlink:href="#m5970374a87" y="226.768068"/>
     <use style="fill:#1f77b4;stroke:#1f77b4;" x="50.115836" xlink:href="#m5970374a87" y="176.795435"/>
     <use style="fill:#1f77b4;stroke:#1f77b4;" x="50.209746" xlink:href="#m5970374a87" y="44.475124"/>
     <use style="fill:#1f77b4;stroke:#1f77b4;" x="54.120723" xlink:href="#m5970374a87" y="216.243358"/>
     <use style="fill:#1f77b4;stroke:#1f77b4;" x="50.311026" xlink:href="#m5970374a87" y="61.587649"/>
     <use style="fill:#1f77b4;stroke:#1f77b4;" x="52.261981" xlink:href="#m5970374a87" y="47.346013"/>
     <use style="fill:#1f77b4;stroke:#1f77b4;" x="51.927158" xlink:href="#m5970374a87" y="57.425143"/>
     <use style="fill:#1f77b4;stroke:#1f77b4;" x="50.585708" xlink:href="#m5970374a87" y="47.013238"/>
     <use style="fill:#1f77b4;stroke:#1f77b4;" x="49.184767" xlink:href="#m5970374a87" y="179.790409"/>
     <use style="fill:#1f77b4;stroke:#1f77b4;" x="51.670985" xlink:href="#m5970374a87" y="81.401854"/>
     <use style="fill:#1f77b4;stroke:#1f77b4;" x="52.920979" xlink:href="#m5970374a87" y="65.840399"/>
     <use style="fill:#1f77b4;stroke:#1f77b4;" x="71.661869" xlink:href="#m5970374a87" y="86.46116"/>
     <use style="fill:#1f77b4;stroke:#1f77b4;" x="51.000367" xlink:href="#m5970374a87" y="83.415424"/>
     <use style="fill:#1f77b4;stroke:#1f77b4;" x="49.200217" xlink:href="#m5970374a87" y="197.906898"/>
     <use style="fill:#1f77b4;stroke:#1f77b4;" x="50.427478" xlink:href="#m5970374a87" y="161.465231"/>
     <use style="fill:#1f77b4;stroke:#1f77b4;" x="70.604444" xlink:href="#m5970374a87" y="190.191034"/>
     <use style="fill:#1f77b4;stroke:#1f77b4;" x="50.520994" xlink:href="#m5970374a87" y="41.480151"/>
     <use style="fill:#1f77b4;stroke:#1f77b4;" x="66.257145" xlink:href="#m5970374a87" y="33.899652"/>
     <use style="fill:#1f77b4;stroke:#1f77b4;" x="49.454852" xlink:href="#m5970374a87" y="168.825759"/>
     <use style="fill:#1f77b4;stroke:#1f77b4;" x="49.520645" xlink:href="#m5970374a87" y="153.523756"/>
     <use style="fill:#1f77b4;stroke:#1f77b4;" x="72.263879" xlink:href="#m5970374a87" y="40.955607"/>
     <use style="fill:#1f77b4;stroke:#1f77b4;" x="55.490156" xlink:href="#m5970374a87" y="150.286251"/>
     <use style="fill:#1f77b4;stroke:#1f77b4;" x="52.061721" xlink:href="#m5970374a87" y="40.521308"/>
     <use style="fill:#1f77b4;stroke:#1f77b4;" x="52.587703" xlink:href="#m5970374a87" y="92.546992"/>
     <use style="fill:#1f77b4;stroke:#1f77b4;" x="51.847997" xlink:href="#m5970374a87" y="172.931863"/>
     <use style="fill:#1f77b4;stroke:#1f77b4;" x="49.459691" xlink:href="#m5970374a87" y="227.185446"/>
     <use style="fill:#1f77b4;stroke:#1f77b4;" x="51.440825" xlink:href="#m5970374a87" y="145.243866"/>
     <use style="fill:#1f77b4;stroke:#1f77b4;" x="51.153676" xlink:href="#m5970374a87" y="92.891047"/>
     <use style="fill:#1f77b4;stroke:#1f77b4;" x="51.011842" xlink:href="#m5970374a87" y="25.151621"/>
     <use style="fill:#1f77b4;stroke:#1f77b4;" x="51.850334" xlink:href="#m5970374a87" y="75.180656"/>
     <use style="fill:#1f77b4;stroke:#1f77b4;" x="49.129977" xlink:href="#m5970374a87" y="27.695375"/>
     <use style="fill:#1f77b4;stroke:#1f77b4;" x="361.932749" xlink:href="#m5970374a87" y="123.912433"/>
     <use style="fill:#1f77b4;stroke:#1f77b4;" x="112.036048" xlink:href="#m5970374a87" y="90.341653"/>
     <use style="fill:#1f77b4;stroke:#1f77b4;" x="68.615549" xlink:href="#m5970374a87" y="88.570614"/>
     <use style="fill:#1f77b4;stroke:#1f77b4;" x="56.793756" xlink:href="#m5970374a87" y="152.976651"/>
     <use style="fill:#1f77b4;stroke:#1f77b4;" x="50.202759" xlink:href="#m5970374a87" y="43.894178"/>
     <use style="fill:#1f77b4;stroke:#1f77b4;" x="50.855811" xlink:href="#m5970374a87" y="33.40331"/>
     <use style="fill:#1f77b4;stroke:#1f77b4;" x="65.429787" xlink:href="#m5970374a87" y="34.52572"/>
     <use style="fill:#1f77b4;stroke:#1f77b4;" x="49.828285" xlink:href="#m5970374a87" y="79.52929"/>
     <use style="fill:#1f77b4;stroke:#1f77b4;" x="84.962867" xlink:href="#m5970374a87" y="22.923722"/>
     <use style="fill:#1f77b4;stroke:#1f77b4;" x="50.75057" xlink:href="#m5970374a87" y="79.709778"/>
     <use style="fill:#1f77b4;stroke:#1f77b4;" x="59.079147" xlink:href="#m5970374a87" y="183.631421"/>
     <use style="fill:#1f77b4;stroke:#1f77b4;" x="55.610867" xlink:href="#m5970374a87" y="109.253418"/>
     <use style="fill:#1f77b4;stroke:#1f77b4;" x="62.864756" xlink:href="#m5970374a87" y="45.371924"/>
     <use style="fill:#1f77b4;stroke:#1f77b4;" x="49.750916" xlink:href="#m5970374a87" y="51.209585"/>
     <use style="fill:#1f77b4;stroke:#1f77b4;" x="50.149838" xlink:href="#m5970374a87" y="82.766795"/>
     <use style="fill:#1f77b4;stroke:#1f77b4;" x="49.612024" xlink:href="#m5970374a87" y="248.595843"/>
     <use style="fill:#1f77b4;stroke:#1f77b4;" x="49.944889" xlink:href="#m5970374a87" y="231.190025"/>
     <use style="fill:#1f77b4;stroke:#1f77b4;" x="50.745983" xlink:href="#m5970374a87" y="71.717541"/>
     <use style="fill:#1f77b4;stroke:#1f77b4;" x="54.445967" xlink:href="#m5970374a87" y="153.551957"/>
     <use style="fill:#1f77b4;stroke:#1f77b4;" x="52.800208" xlink:href="#m5970374a87" y="216.384364"/>
     <use style="fill:#1f77b4;stroke:#1f77b4;" x="56.039049" xlink:href="#m5970374a87" y="70.087508"/>
     <use style="fill:#1f77b4;stroke:#1f77b4;" x="52.435222" xlink:href="#m5970374a87" y="181.617851"/>
     <use style="fill:#1f77b4;stroke:#1f77b4;" x="49.966339" xlink:href="#m5970374a87" y="126.924328"/>
     <use style="fill:#1f77b4;stroke:#1f77b4;" x="49.397373" xlink:href="#m5970374a87" y="78.209471"/>
     <use style="fill:#1f77b4;stroke:#1f77b4;" x="79.674672" xlink:href="#m5970374a87" y="59.066456"/>
     <use style="fill:#1f77b4;stroke:#1f77b4;" x="49.854771" xlink:href="#m5970374a87" y="112.039703"/>
     <use style="fill:#1f77b4;stroke:#1f77b4;" x="49.237844" xlink:href="#m5970374a87" y="68.384152"/>
     <use style="fill:#1f77b4;stroke:#1f77b4;" x="58.557007" xlink:href="#m5970374a87" y="87.442564"/>
     <use style="fill:#1f77b4;stroke:#1f77b4;" x="54.666883" xlink:href="#m5970374a87" y="251.472371"/>
     <use style="fill:#1f77b4;stroke:#1f77b4;" x="62.503286" xlink:href="#m5970374a87" y="138.740655"/>
     <use style="fill:#1f77b4;stroke:#1f77b4;" x="49.62398" xlink:href="#m5970374a87" y="190.422284"/>
     <use style="fill:#1f77b4;stroke:#1f77b4;" x="57.188855" xlink:href="#m5970374a87" y="129.061983"/>
     <use style="fill:#1f77b4;stroke:#1f77b4;" x="53.714172" xlink:href="#m5970374a87" y="38.947677"/>
     <use style="fill:#1f77b4;stroke:#1f77b4;" x="50.204642" xlink:href="#m5970374a87" y="36.454686"/>
     <use style="fill:#1f77b4;stroke:#1f77b4;" x="50.644103" xlink:href="#m5970374a87" y="77.656727"/>
     <use style="fill:#1f77b4;stroke:#1f77b4;" x="52.678418" xlink:href="#m5970374a87" y="168.081246"/>
     <use style="fill:#1f77b4;stroke:#1f77b4;" x="87.094026" xlink:href="#m5970374a87" y="224.528888"/>
     <use style="fill:#1f77b4;stroke:#1f77b4;" x="50.348957" xlink:href="#m5970374a87" y="36.499808"/>
     <use style="fill:#1f77b4;stroke:#1f77b4;" x="49.947976" xlink:href="#m5970374a87" y="62.196796"/>
     <use style="fill:#1f77b4;stroke:#1f77b4;" x="96.74203" xlink:href="#m5970374a87" y="119.484835"/>
     <use style="fill:#1f77b4;stroke:#1f77b4;" x="49.95848" xlink:href="#m5970374a87" y="62.777742"/>
     <use style="fill:#1f77b4;stroke:#1f77b4;" x="50.92357" xlink:href="#m5970374a87" y="84.126096"/>
     <use style="fill:#1f77b4;stroke:#1f77b4;" x="57.124882" xlink:href="#m5970374a87" y="85.993019"/>
     <use style="fill:#1f77b4;stroke:#1f77b4;" x="74.708687" xlink:href="#m5970374a87" y="84.487072"/>
     <use style="fill:#1f77b4;stroke:#1f77b4;" x="59.898582" xlink:href="#m5970374a87" y="62.631095"/>
     <use style="fill:#1f77b4;stroke:#1f77b4;" x="52.043841" xlink:href="#m5970374a87" y="48.333057"/>
     <use style="fill:#1f77b4;stroke:#1f77b4;" x="50.155815" xlink:href="#m5970374a87" y="44.678173"/>
     <use style="fill:#1f77b4;stroke:#1f77b4;" x="49.269786" xlink:href="#m5970374a87" y="57.673314"/>
     <use style="fill:#1f77b4;stroke:#1f77b4;" x="55.321853" xlink:href="#m5970374a87" y="80.042553"/>
     <use style="fill:#1f77b4;stroke:#1f77b4;" x="51.541638" xlink:href="#m5970374a87" y="228.008923"/>
     <use style="fill:#1f77b4;stroke:#1f77b4;" x="49.101136" xlink:href="#m5970374a87" y="119.231024"/>
     <use style="fill:#1f77b4;stroke:#1f77b4;" x="56.822329" xlink:href="#m5970374a87" y="78.344837"/>
     <use style="fill:#1f77b4;stroke:#1f77b4;" x="52.501637" xlink:href="#m5970374a87" y="133.139885"/>
     <use style="fill:#1f77b4;stroke:#1f77b4;" x="51.905044" xlink:href="#m5970374a87" y="71.435529"/>
     <use style="fill:#1f77b4;stroke:#1f77b4;" x="50.776316" xlink:href="#m5970374a87" y="248.731209"/>
     <use style="fill:#1f77b4;stroke:#1f77b4;" x="50.327847" xlink:href="#m5970374a87" y="37.763225"/>
     <use style="fill:#1f77b4;stroke:#1f77b4;" x="50.579898" xlink:href="#m5970374a87" y="67.707322"/>
     <use style="fill:#1f77b4;stroke:#1f77b4;" x="49.611065" xlink:href="#m5970374a87" y="49.30318"/>
     <use style="fill:#1f77b4;stroke:#1f77b4;" x="51.61439" xlink:href="#m5970374a87" y="217.19656"/>
     <use style="fill:#1f77b4;stroke:#1f77b4;" x="61.442622" xlink:href="#m5970374a87" y="210.541063"/>
     <use style="fill:#1f77b4;stroke:#1f77b4;" x="60.442404" xlink:href="#m5970374a87" y="32.29782"/>
     <use style="fill:#1f77b4;stroke:#1f77b4;" x="54.787086" xlink:href="#m5970374a87" y="80.493773"/>
     <use style="fill:#1f77b4;stroke:#1f77b4;" x="60.962215" xlink:href="#m5970374a87" y="158.554861"/>
     <use style="fill:#1f77b4;stroke:#1f77b4;" x="49.364175" xlink:href="#m5970374a87" y="265.398153"/>
     <use style="fill:#1f77b4;stroke:#1f77b4;" x="51.589682" xlink:href="#m5970374a87" y="32.619315"/>
     <use style="fill:#1f77b4;stroke:#1f77b4;" x="51.173654" xlink:href="#m5970374a87" y="28.011229"/>
     <use style="fill:#1f77b4;stroke:#1f77b4;" x="54.487415" xlink:href="#m5970374a87" y="70.640253"/>
     <use style="fill:#1f77b4;stroke:#1f77b4;" x="55.574959" xlink:href="#m5970374a87" y="46.629701"/>
     <use style="fill:#1f77b4;stroke:#1f77b4;" x="59.791899" xlink:href="#m5970374a87" y="192.616342"/>
     <use style="fill:#1f77b4;stroke:#1f77b4;" x="67.379824" xlink:href="#m5970374a87" y="90.533422"/>
     <use style="fill:#1f77b4;stroke:#1f77b4;" x="50.651492" xlink:href="#m5970374a87" y="159.321935"/>
     <use style="fill:#1f77b4;stroke:#1f77b4;" x="49.34263" xlink:href="#m5970374a87" y="95.028703"/>
     <use style="fill:#1f77b4;stroke:#1f77b4;" x="51.940518" xlink:href="#m5970374a87" y="71.881109"/>
     <use style="fill:#1f77b4;stroke:#1f77b4;" x="69.096006" xlink:href="#m5970374a87" y="83.985089"/>
     <use style="fill:#1f77b4;stroke:#1f77b4;" x="57.264543" xlink:href="#m5970374a87" y="198.115588"/>
     <use style="fill:#1f77b4;stroke:#1f77b4;" x="66.170448" xlink:href="#m5970374a87" y="40.848442"/>
     <use style="fill:#1f77b4;stroke:#1f77b4;" x="133.900214" xlink:href="#m5970374a87" y="47.52086"/>
     <use style="fill:#1f77b4;stroke:#1f77b4;" x="50.016336" xlink:href="#m5970374a87" y="58.000449"/>
     <use style="fill:#1f77b4;stroke:#1f77b4;" x="56.395044" xlink:href="#m5970374a87" y="72.873793"/>
     <use style="fill:#1f77b4;stroke:#1f77b4;" x="73.070154" xlink:href="#m5970374a87" y="70.042386"/>
     <use style="fill:#1f77b4;stroke:#1f77b4;" x="50.177186" xlink:href="#m5970374a87" y="74.706875"/>
     <use style="fill:#1f77b4;stroke:#1f77b4;" x="55.303731" xlink:href="#m5970374a87" y="135.192937"/>
     <use style="fill:#1f77b4;stroke:#1f77b4;" x="52.354701" xlink:href="#m5970374a87" y="249.769015"/>
     <use style="fill:#1f77b4;stroke:#1f77b4;" x="52.513937" xlink:href="#m5970374a87" y="243.547817"/>
    </g>
   </g>
   <g id="matplotlib.axis_1">
    <g id="xtick_1">
     <g id="line2d_1">
      <defs>
       <path d="M 0 0 
L 0 3.5 
" id="m68ba986c22" style="stroke:#000000;stroke-width:0.8;"/>
      </defs>
      <g>
       <use style="stroke:#000000;stroke-width:0.8;" x="49.044899" xlink:href="#m68ba986c22" y="277.521875"/>
      </g>
     </g>
     <g id="text_1">
      <!-- 0 -->
      <g transform="translate(45.863649 292.120313)scale(0.1 -0.1)">
       <defs>
        <path d="M 2034 4250 
Q 1547 4250 1301 3770 
Q 1056 3291 1056 2328 
Q 1056 1369 1301 889 
Q 1547 409 2034 409 
Q 2525 409 2770 889 
Q 3016 1369 3016 2328 
Q 3016 3291 2770 3770 
Q 2525 4250 2034 4250 
z
M 2034 4750 
Q 2819 4750 3233 4129 
Q 3647 3509 3647 2328 
Q 3647 1150 3233 529 
Q 2819 -91 2034 -91 
Q 1250 -91 836 529 
Q 422 1150 422 2328 
Q 422 3509 836 4129 
Q 1250 4750 2034 4750 
z
" id="DejaVuSans-30" transform="scale(0.015625)"/>
       </defs>
       <use xlink:href="#DejaVuSans-30"/>
      </g>
     </g>
    </g>
    <g id="xtick_2">
     <g id="line2d_2">
      <g>
       <use style="stroke:#000000;stroke-width:0.8;" x="105.400966" xlink:href="#m68ba986c22" y="277.521875"/>
      </g>
     </g>
     <g id="text_2">
      <!-- 200 -->
      <g transform="translate(95.857216 292.120313)scale(0.1 -0.1)">
       <defs>
        <path d="M 1228 531 
L 3431 531 
L 3431 0 
L 469 0 
L 469 531 
Q 828 903 1448 1529 
Q 2069 2156 2228 2338 
Q 2531 2678 2651 2914 
Q 2772 3150 2772 3378 
Q 2772 3750 2511 3984 
Q 2250 4219 1831 4219 
Q 1534 4219 1204 4116 
Q 875 4013 500 3803 
L 500 4441 
Q 881 4594 1212 4672 
Q 1544 4750 1819 4750 
Q 2544 4750 2975 4387 
Q 3406 4025 3406 3419 
Q 3406 3131 3298 2873 
Q 3191 2616 2906 2266 
Q 2828 2175 2409 1742 
Q 1991 1309 1228 531 
z
" id="DejaVuSans-32" transform="scale(0.015625)"/>
       </defs>
       <use xlink:href="#DejaVuSans-32"/>
       <use x="63.623047" xlink:href="#DejaVuSans-30"/>
       <use x="127.246094" xlink:href="#DejaVuSans-30"/>
      </g>
     </g>
    </g>
    <g id="xtick_3">
     <g id="line2d_3">
      <g>
       <use style="stroke:#000000;stroke-width:0.8;" x="161.757033" xlink:href="#m68ba986c22" y="277.521875"/>
      </g>
     </g>
     <g id="text_3">
      <!-- 400 -->
      <g transform="translate(152.213283 292.120313)scale(0.1 -0.1)">
       <defs>
        <path d="M 2419 4116 
L 825 1625 
L 2419 1625 
L 2419 4116 
z
M 2253 4666 
L 3047 4666 
L 3047 1625 
L 3713 1625 
L 3713 1100 
L 3047 1100 
L 3047 0 
L 2419 0 
L 2419 1100 
L 313 1100 
L 313 1709 
L 2253 4666 
z
" id="DejaVuSans-34" transform="scale(0.015625)"/>
       </defs>
       <use xlink:href="#DejaVuSans-34"/>
       <use x="63.623047" xlink:href="#DejaVuSans-30"/>
       <use x="127.246094" xlink:href="#DejaVuSans-30"/>
      </g>
     </g>
    </g>
    <g id="xtick_4">
     <g id="line2d_4">
      <g>
       <use style="stroke:#000000;stroke-width:0.8;" x="218.1131" xlink:href="#m68ba986c22" y="277.521875"/>
      </g>
     </g>
     <g id="text_4">
      <!-- 600 -->
      <g transform="translate(208.56935 292.120313)scale(0.1 -0.1)">
       <defs>
        <path d="M 2113 2584 
Q 1688 2584 1439 2293 
Q 1191 2003 1191 1497 
Q 1191 994 1439 701 
Q 1688 409 2113 409 
Q 2538 409 2786 701 
Q 3034 994 3034 1497 
Q 3034 2003 2786 2293 
Q 2538 2584 2113 2584 
z
M 3366 4563 
L 3366 3988 
Q 3128 4100 2886 4159 
Q 2644 4219 2406 4219 
Q 1781 4219 1451 3797 
Q 1122 3375 1075 2522 
Q 1259 2794 1537 2939 
Q 1816 3084 2150 3084 
Q 2853 3084 3261 2657 
Q 3669 2231 3669 1497 
Q 3669 778 3244 343 
Q 2819 -91 2113 -91 
Q 1303 -91 875 529 
Q 447 1150 447 2328 
Q 447 3434 972 4092 
Q 1497 4750 2381 4750 
Q 2619 4750 2861 4703 
Q 3103 4656 3366 4563 
z
" id="DejaVuSans-36" transform="scale(0.015625)"/>
       </defs>
       <use xlink:href="#DejaVuSans-36"/>
       <use x="63.623047" xlink:href="#DejaVuSans-30"/>
       <use x="127.246094" xlink:href="#DejaVuSans-30"/>
      </g>
     </g>
    </g>
    <g id="xtick_5">
     <g id="line2d_5">
      <g>
       <use style="stroke:#000000;stroke-width:0.8;" x="274.469167" xlink:href="#m68ba986c22" y="277.521875"/>
      </g>
     </g>
     <g id="text_5">
      <!-- 800 -->
      <g transform="translate(264.925417 292.120313)scale(0.1 -0.1)">
       <defs>
        <path d="M 2034 2216 
Q 1584 2216 1326 1975 
Q 1069 1734 1069 1313 
Q 1069 891 1326 650 
Q 1584 409 2034 409 
Q 2484 409 2743 651 
Q 3003 894 3003 1313 
Q 3003 1734 2745 1975 
Q 2488 2216 2034 2216 
z
M 1403 2484 
Q 997 2584 770 2862 
Q 544 3141 544 3541 
Q 544 4100 942 4425 
Q 1341 4750 2034 4750 
Q 2731 4750 3128 4425 
Q 3525 4100 3525 3541 
Q 3525 3141 3298 2862 
Q 3072 2584 2669 2484 
Q 3125 2378 3379 2068 
Q 3634 1759 3634 1313 
Q 3634 634 3220 271 
Q 2806 -91 2034 -91 
Q 1263 -91 848 271 
Q 434 634 434 1313 
Q 434 1759 690 2068 
Q 947 2378 1403 2484 
z
M 1172 3481 
Q 1172 3119 1398 2916 
Q 1625 2713 2034 2713 
Q 2441 2713 2670 2916 
Q 2900 3119 2900 3481 
Q 2900 3844 2670 4047 
Q 2441 4250 2034 4250 
Q 1625 4250 1398 4047 
Q 1172 3844 1172 3481 
z
" id="DejaVuSans-38" transform="scale(0.015625)"/>
       </defs>
       <use xlink:href="#DejaVuSans-38"/>
       <use x="63.623047" xlink:href="#DejaVuSans-30"/>
       <use x="127.246094" xlink:href="#DejaVuSans-30"/>
      </g>
     </g>
    </g>
    <g id="xtick_6">
     <g id="line2d_6">
      <g>
       <use style="stroke:#000000;stroke-width:0.8;" x="330.825234" xlink:href="#m68ba986c22" y="277.521875"/>
      </g>
     </g>
     <g id="text_6">
      <!-- 1000 -->
      <g transform="translate(318.100234 292.120313)scale(0.1 -0.1)">
       <defs>
        <path d="M 794 531 
L 1825 531 
L 1825 4091 
L 703 3866 
L 703 4441 
L 1819 4666 
L 2450 4666 
L 2450 531 
L 3481 531 
L 3481 0 
L 794 0 
L 794 531 
z
" id="DejaVuSans-31" transform="scale(0.015625)"/>
       </defs>
       <use xlink:href="#DejaVuSans-31"/>
       <use x="63.623047" xlink:href="#DejaVuSans-30"/>
       <use x="127.246094" xlink:href="#DejaVuSans-30"/>
       <use x="190.869141" xlink:href="#DejaVuSans-30"/>
      </g>
     </g>
    </g>
    <g id="xtick_7">
     <g id="line2d_7">
      <g>
       <use style="stroke:#000000;stroke-width:0.8;" x="387.181301" xlink:href="#m68ba986c22" y="277.521875"/>
      </g>
     </g>
     <g id="text_7">
      <!-- 1200 -->
      <g transform="translate(374.456301 292.120313)scale(0.1 -0.1)">
       <use xlink:href="#DejaVuSans-31"/>
       <use x="63.623047" xlink:href="#DejaVuSans-32"/>
       <use x="127.246094" xlink:href="#DejaVuSans-30"/>
       <use x="190.869141" xlink:href="#DejaVuSans-30"/>
      </g>
     </g>
    </g>
   </g>
   <g id="matplotlib.axis_2">
    <g id="ytick_1">
     <g id="line2d_8">
      <defs>
       <path d="M 0 0 
L -3.5 0 
" id="m6dd7ff3021" style="stroke:#000000;stroke-width:0.8;"/>
      </defs>
      <g>
       <use style="stroke:#000000;stroke-width:0.8;" x="30.525" xlink:href="#m6dd7ff3021" y="263.215376"/>
      </g>
     </g>
     <g id="text_8">
      <!-- 40 -->
      <g transform="translate(10.8 267.014595)scale(0.1 -0.1)">
       <use xlink:href="#DejaVuSans-34"/>
       <use x="63.623047" xlink:href="#DejaVuSans-30"/>
      </g>
     </g>
    </g>
    <g id="ytick_2">
     <g id="line2d_9">
      <g>
       <use style="stroke:#000000;stroke-width:0.8;" x="30.525" xlink:href="#m6dd7ff3021" y="206.812856"/>
      </g>
     </g>
     <g id="text_9">
      <!-- 50 -->
      <g transform="translate(10.8 210.612075)scale(0.1 -0.1)">
       <defs>
        <path d="M 691 4666 
L 3169 4666 
L 3169 4134 
L 1269 4134 
L 1269 2991 
Q 1406 3038 1543 3061 
Q 1681 3084 1819 3084 
Q 2600 3084 3056 2656 
Q 3513 2228 3513 1497 
Q 3513 744 3044 326 
Q 2575 -91 1722 -91 
Q 1428 -91 1123 -41 
Q 819 9 494 109 
L 494 744 
Q 775 591 1075 516 
Q 1375 441 1709 441 
Q 2250 441 2565 725 
Q 2881 1009 2881 1497 
Q 2881 1984 2565 2268 
Q 2250 2553 1709 2553 
Q 1456 2553 1204 2497 
Q 953 2441 691 2322 
L 691 4666 
z
" id="DejaVuSans-35" transform="scale(0.015625)"/>
       </defs>
       <use xlink:href="#DejaVuSans-35"/>
       <use x="63.623047" xlink:href="#DejaVuSans-30"/>
      </g>
     </g>
    </g>
    <g id="ytick_3">
     <g id="line2d_10">
      <g>
       <use style="stroke:#000000;stroke-width:0.8;" x="30.525" xlink:href="#m6dd7ff3021" y="150.410337"/>
      </g>
     </g>
     <g id="text_10">
      <!-- 60 -->
      <g transform="translate(10.8 154.209555)scale(0.1 -0.1)">
       <use xlink:href="#DejaVuSans-36"/>
       <use x="63.623047" xlink:href="#DejaVuSans-30"/>
      </g>
     </g>
    </g>
    <g id="ytick_4">
     <g id="line2d_11">
      <g>
       <use style="stroke:#000000;stroke-width:0.8;" x="30.525" xlink:href="#m6dd7ff3021" y="94.007817"/>
      </g>
     </g>
     <g id="text_11">
      <!-- 70 -->
      <g transform="translate(10.8 97.807036)scale(0.1 -0.1)">
       <defs>
        <path d="M 525 4666 
L 3525 4666 
L 3525 4397 
L 1831 0 
L 1172 0 
L 2766 4134 
L 525 4134 
L 525 4666 
z
" id="DejaVuSans-37" transform="scale(0.015625)"/>
       </defs>
       <use xlink:href="#DejaVuSans-37"/>
       <use x="63.623047" xlink:href="#DejaVuSans-30"/>
      </g>
     </g>
    </g>
    <g id="ytick_5">
     <g id="line2d_12">
      <g>
       <use style="stroke:#000000;stroke-width:0.8;" x="30.525" xlink:href="#m6dd7ff3021" y="37.605297"/>
      </g>
     </g>
     <g id="text_12">
      <!-- 80 -->
      <g transform="translate(10.8 41.404516)scale(0.1 -0.1)">
       <use xlink:href="#DejaVuSans-38"/>
       <use x="63.623047" xlink:href="#DejaVuSans-30"/>
      </g>
     </g>
    </g>
   </g>
   <g id="patch_3">
    <path d="M 30.525 277.521875 
L 30.525 10.8 
" style="fill:none;stroke:#000000;stroke-linecap:square;stroke-linejoin:miter;stroke-width:0.8;"/>
   </g>
   <g id="patch_4">
    <path d="M 439.2 277.521875 
L 439.2 10.8 
" style="fill:none;stroke:#000000;stroke-linecap:square;stroke-linejoin:miter;stroke-width:0.8;"/>
   </g>
   <g id="patch_5">
    <path d="M 30.525 277.521875 
L 439.2 277.521875 
" style="fill:none;stroke:#000000;stroke-linecap:square;stroke-linejoin:miter;stroke-width:0.8;"/>
   </g>
   <g id="patch_6">
    <path d="M 30.525 10.8 
L 439.2 10.8 
" style="fill:none;stroke:#000000;stroke-linecap:square;stroke-linejoin:miter;stroke-width:0.8;"/>
   </g>
  </g>
 </g>
 <defs>
  <clipPath id="p07d1e5f072">
   <rect height="266.721875" width="408.675" x="30.525" y="10.8"/>
  </clipPath>
 </defs>
</svg>
